<?xml version="1.0" encoding="UTF-8" standalone="no"?>
<!-- Generator: Adobe Illustrator 20.1.0, SVG Export Plug-In . SVG Version: 6.00 Build 0)  -->

<svg
   xmlns:dc="http://purl.org/dc/elements/1.1/"
   xmlns:cc="http://creativecommons.org/ns#"
   xmlns:rdf="http://www.w3.org/1999/02/22-rdf-syntax-ns#"
   xmlns:svg="http://www.w3.org/2000/svg"
   xmlns="http://www.w3.org/2000/svg"
   xmlns:sodipodi="http://sodipodi.sourceforge.net/DTD/sodipodi-0.dtd"
   xmlns:inkscape="http://www.inkscape.org/namespaces/inkscape"
   version="1.1"
   id="Layer_1"
   x="0px"
   y="0px"
   viewBox="0 0 253.45778 227.74896"
   xml:space="preserve"
   sodipodi:docname="happycow.svg"
   width="253.45778"
   height="227.74896"
   inkscape:version="0.92.2 2405546, 2018-03-11"><metadata
   id="metadata69"><rdf:RDF><cc:Work
       rdf:about=""><dc:format>image/svg+xml</dc:format><dc:type
         rdf:resource="http://purl.org/dc/dcmitype/StillImage" /></cc:Work></rdf:RDF></metadata><defs
   id="defs67">
	
	
</defs><sodipodi:namedview
   pagecolor="#ffffff"
   bordercolor="#666666"
   borderopacity="1"
   objecttolerance="10"
   gridtolerance="10"
   guidetolerance="10"
   inkscape:pageopacity="0"
   inkscape:pageshadow="2"
   inkscape:window-width="1920"
   inkscape:window-height="1015"
   id="namedview65"
   showgrid="false"
   inkscape:zoom="0.42565598"
   inkscape:cx="513.80967"
   inkscape:cy="113.91756"
   inkscape:window-x="0"
   inkscape:window-y="0"
   inkscape:window-maximized="1"
   inkscape:current-layer="Layer_1" />
<style
   type="text/css"
   id="style2">
	.st0{fill:#7C4EC4;}
	.st1{fill:#010101;}
	.st2{fill:#7C4EC4;stroke:#5E3883;stroke-width:1.35;}
	.st3{fill:#F5EAD7;}
	.st4{fill:#CDCFD0;stroke:#7B7C7C;stroke-width:1.35;}
	.st5{fill:#FFFFFF;}
	.st6{fill:#231F20;}
	.st7{fill:#F5EAD7;stroke:#938C81;stroke-width:1.35;}
	.st8{opacity:0.4;fill:#7C4EC4;enable-background:new    ;}
</style>
<g
   id="g60"
   transform="translate(-0.69033157,-0.66859989)">
		<path
   style="fill:#7c4ec4;stroke:#5e3883;stroke-width:1.35000002"
   inkscape:connector-curvature="0"
   id="path10"
   d="m 60.1,88.3 c -1,3 -18,4.1 -20.1,4.3 C 29.8,93.5 13.5,95.1 5.6,86.8 -1.7,79.2 1.2,66.1 8.5,59.5 c 7.6,-6.9 17.6,-6.6 26.6,-4.9 5.2,1 10.3,2.5 15.3,4.3 1.6,0.6 17.4,6.9 16.9,8.5 -0.1,0 -7.2,20.9 -7.2,20.9"
   class="st2" />
		<path
   style="fill:#f5ead7"
   inkscape:connector-curvature="0"
   id="path12"
   d="M 36.5,84.1 C 30.6,84.7 21.2,85.8 16.7,81 12.6,76.6 14.3,68.8 18.5,64.8 c 4.5,-4.2 8.9,-3.8 14,-2.9 3,0.5 9.2,2.2 11.8,5.2 2.7,3 10.3,14.2 -7.8,17 z"
   class="st3" />
		<path
   style="fill:#7c4ec4;stroke:#5e3883;stroke-width:1.35000002"
   inkscape:connector-curvature="0"
   id="path14"
   d="m 192.8,109.9 c 0.1,2.8 15.9,8.6 17.9,9.4 9.5,3.7 24.6,9.6 34.5,4.9 9.2,-4.4 10.3,-16.4 5.4,-24.1 -5.2,-8.1 -14.9,-10.6 -23.9,-11.8 -5.2,-0.7 -10.6,-0.8 -15.8,-0.6 -1.7,0.1 -18.6,0.9 -18.6,2.4 l 0.5,19.8"
   class="st2" />
		<path
   style="fill:#f5ead7"
   inkscape:connector-curvature="0"
   id="path16"
   d="m 216.6,113 c 5.5,2.2 14.1,5.8 19.8,3 5.3,-2.6 5.9,-9.7 3,-14.3 -3,-4.8 -7.3,-5.8 -12.5,-6.5 -3,-0.4 -9.4,-0.7 -12.8,1.1 -3.4,1.8 -14,9.3 2.5,16.7 z"
   class="st3" />
		<path
   style="fill:#cdcfd0;stroke:#7b7c7c;stroke-width:1.35000002"
   inkscape:connector-curvature="0"
   id="path18"
   d="M 94.2,50.9 C 94.5,50.7 83.7,33.6 89.2,20.3 91.7,14.8 100.2,10.2 99.5,5.1 98,-1.5 84.3,2.3 80.6,3.8 60,12.1 47.8,45 61.9,74.3 61.8,74.4 94.2,50.9 94.2,50.9"
   class="st4" />
		<path
   style="fill:#ffffff"
   inkscape:connector-curvature="0"
   id="path20"
   d="m 87.1,47.6 c -10,-28.8 5.4,-39 5.4,-39 -21.5,7.3 -11.7,41.3 -11.7,41.3 0,0 6.3,-2.3 6.3,-2.3 z"
   class="st5" />
		<path
   style="fill:#cdcfd0;stroke:#7b7c7c;stroke-width:1.35000002"
   inkscape:connector-curvature="0"
   id="path22"
   d="m 193.7,40.9 c 0.4,-6.1 -4.9,-14.1 -2,-18.2 4.5,-5.2 14.7,4.7 17.3,7.8 14.3,17 9.5,51.8 -16.8,70.9 0,0 -17.5,-35.9 -17.5,-35.9 -0.1,-0.4 17.5,-10.3 19,-24.6 z"
   class="st4" />
		<path
   style="fill:#ffffff"
   inkscape:connector-curvature="0"
   id="path24"
   d="M 182.6,65.9 C 205.1,45.2 196.2,29 196.2,29 c 15.5,16.6 -9.1,41.9 -9.1,41.9 0,0 -4.5,-5 -4.5,-5 z"
   class="st5" />
		<path
   style="fill:#7c4ec4;stroke:#5e3883;stroke-width:1.35000002"
   inkscape:connector-curvature="0"
   id="path26"
   d="m 49.5,113.2 c 0,0 -7.2,-75.5 60.6,-69.6 l 55,10.5 c 0,0 46,12.4 32.2,79.7 0,0 -68.6,39.6 -147.7,-21.3"
   class="st2" />
		<path
   style="fill:#ffffff"
   inkscape:connector-curvature="0"
   id="path28"
   d="m 71.2,108.6 c 0,0 0.1,-38.4 20.8,-35 27.9,4.5 11.8,50.2 11.8,50.2 z"
   class="st5" />
		<path
   style="fill:#231f20"
   inkscape:connector-curvature="0"
   id="path30"
   d="M 91.6,121.7 C 83.8,121.8 77.4,112.8 77.2,101.5 77,90.2 83.2,81 91,80.8 c 7.8,-0.1 14.2,8.9 14.4,20.2 0.1,11.3 -6.1,20.5 -13.8,20.7 z"
   class="st6" />
		<path
   style="fill:#ffffff"
   inkscape:connector-curvature="0"
   id="path32"
   d="m 96.1,95 c 0,2.4 -1.9,4.3 -4.3,4.3 -2.4,0 -4.3,-1.9 -4.3,-4.3 0,-2.4 1.9,-4.3 4.3,-4.3 2.4,0 4.3,2 4.3,4.3"
   class="st5" />
		<path
   style="fill:#ffffff"
   inkscape:connector-curvature="0"
   id="path34"
   d="m 176.5,124.3 c 0,0 13.4,-32.6 -7,-37.5 -29.7,-7 -30.9,43.7 -30.9,43.7 0,0 37.9,-6.2 37.9,-6.2 z"
   class="st5" />
		<path
   style="fill:#231f20"
   inkscape:connector-curvature="0"
   id="path36"
   d="m 152.7,131.7 c 7.2,2.9 16.4,-3.3 20.6,-13.8 4.2,-10.5 1.7,-21.3 -5.6,-24.2 -7.2,-2.9 -16.4,3.3 -20.6,13.8 -4.1,10.5 -1.6,21.3 5.6,24.2 z"
   class="st6" />
		<path
   style="fill:#ffffff"
   inkscape:connector-curvature="0"
   id="path38"
   d="m 166.5,105.8 c 0.1,2.4 -1.8,4.4 -4.2,4.4 -2.4,0.1 -4.4,-1.8 -4.4,-4.2 -0.1,-2.4 1.8,-4.4 4.2,-4.4 2.4,0 4.4,1.8 4.4,4.2"
   class="st5" />
		<path
   style="fill:#f5ead7;stroke:#938c81;stroke-width:1.35000002"
   inkscape:connector-curvature="0"
   id="path40"
   d="m 102.8,226.1 c 123.7,15.9 123.1,-88.2 87,-101.1 -20.6,-7.4 -40.1,9.6 -69.7,3.7 C 91.1,122.9 80.2,102 53.6,107 10,115.3 10,214.1 102.8,226.1 Z"
   class="st7" />
		<path
   style="fill:#7c4ec4"
   inkscape:connector-curvature="0"
   id="path42"
   d="m 161.8,157.3 c -6,2.9 -11.7,1.6 -12.7,-2.9 -1,-4.5 3,-10.4 9,-13.3 6,-2.9 11.7,-1.6 12.7,2.9 1,4.5 -3,10.4 -9,13.3"
   class="st0" />
		<path
   style="opacity:0.4;fill:#7c4ec4;enable-background:new"
   inkscape:connector-curvature="0"
   id="path44"
   d="m 176.9,140.4 c 0,0 3.7,9.7 -18,17.9 0,0 -4.6,-1.2 -8.9,-6 -1.3,-8.5 19.1,-23.2 26.9,-11.9 z"
   class="st8" />
		<path
   style="fill:#7c4ec4"
   inkscape:connector-curvature="0"
   id="path46"
   d="m 91.2,136.2 c 3.2,5.8 2.3,11.6 -2.1,12.9 -4.4,1.3 -10.6,-2.3 -13.8,-8.1 -3.2,-5.8 -2.3,-11.6 2.1,-12.9 4.3,-1.3 10.5,2.3 13.8,8.1"
   class="st0" />
		<path
   style="opacity:0.4;fill:#7c4ec4;enable-background:new"
   inkscape:connector-curvature="0"
   id="path48"
   d="m 76.9,143.7 c -5.4,-5.6 -11.8,-12.7 -7.4,-18.4 0,0 12.1,-10.7 23.2,15.9"
   class="st8" />
		<path
   style="opacity:0.4;fill:#7c4ec4;enable-background:new"
   inkscape:connector-curvature="0"
   id="path50"
   d="m 187.1,182.3 c -7.9,7.9 -18.3,10.4 -23.2,5.5 -4.9,-4.9 -2.4,-15.3 5.5,-23.2 7.9,-7.9 18.3,-10.4 23.2,-5.5 4.9,4.9 2.5,15.3 -5.5,23.2"
   class="st8" />
		<path
   style="fill:#7c4ec4;stroke:#5e3883;stroke-width:1.35000002"
   inkscape:connector-curvature="0"
   id="path52"
   d="m 130.2,56.2 c 0,0 -18.3,2.2 -19.6,16 0,0 -8.4,-14.8 7.7,-18.8 0,0 -11.9,-5.6 -21.6,0.3 0,0 6.3,-12 22.6,-8.9 -2,-8 -12.3,-11.3 -12.3,-11.3 0,0 11.7,-2.8 22.3,8.3 0,0 0.2,-4.3 4.4,-7.5 0,0 4,3.3 4,8.7 0,0 13.2,-7.7 24.3,3.5 0,0 -12.6,-3.6 -16.4,1 0,0 18.9,1.3 22.4,15.3 0,0 -16.8,-11.8 -24.7,-8.2 12.5,4.6 9.3,17.5 9.3,17.5 0,0 -5.2,-13.9 -22.4,-15.9 z"
   class="st2" />
		<path
   style="fill:#231f20"
   inkscape:connector-curvature="0"
   id="path54"
   d="m 74.3,179.8 2.4,-1.5 c 0,0 8.9,20.1 32.9,23.5 25.7,3.6 44.3,-11.1 44.3,-11.1 l 1.8,2 c 0,0 -19.4,16.3 -46.3,12 -27,-4.3 -35.1,-24.9 -35.1,-24.9 z m 83.9,15.5 H 158 c -5.3,-1.2 -7,-6.1 -7.1,-6.3 -0.3,-0.7 0.1,-1.5 0.9,-1.7 0.7,-0.2 1.5,0.2 1.8,0.9 0.1,0.2 1.4,3.7 5,4.5 0.7,0.2 1.2,0.9 1.1,1.6 -0.2,0.6 -0.8,1 -1.5,1"
   class="st6" />
		<path
   style="opacity:0.4;fill:#7c4ec4;enable-background:new"
   inkscape:connector-curvature="0"
   id="path56"
   d="m 46.6,163.6 c 6.5,9.1 17.3,13 22.9,9 5.6,-4 5.6,-16.2 -0.9,-25.3 -6.5,-9.1 -17.1,-11.8 -22.8,-7.7 -5.6,4 -5.7,14.9 0.8,24"
   class="st8" />
		<path
   style="fill:#231f20"
   inkscape:connector-curvature="0"
   id="path58"
   d="m 71.4,181.7 h 0.2 c 5.4,0 8,-4.4 8.1,-4.6 0.4,-0.6 0.1,-1.5 -0.5,-1.9 -0.7,-0.4 -1.5,-0.2 -1.9,0.5 -0.1,0.2 -2,3.3 -5.8,3.2 -0.8,0 -1.4,0.6 -1.3,1.4 -0.1,0.7 0.5,1.3 1.2,1.4"
   class="st6" />
	</g>
</svg>